<svg xmlns="http://www.w3.org/2000/svg" viewBox="0 0 24 24" width="16" height="16"><path class="secondary" fill-rule="evenodd" fill="currentColor" fill-opacity="0.25" d="M6 4 L13 4 Q15 4 15 6 L15 9.02 A5.5 5.5 0 0 0 9.02 15 L6 15 Q4 15 4 13 L4 6 Q4 4 6 4 Z"/><g class="primary" fill="none" stroke="currentColor" stroke-width="1.688" stroke-linecap="round" stroke-linejoin="round"><path d="M6 4 L13 4 Q15 4 15 6 L15 9.02 A5.5 5.5 0 0 0 9.02 15 L6 15 Q4 15 4 13 L4 6 Q4 4 6 4 Z"/><path d="M15 9.02 A5.5 5.5 0 1 1 9.02 15"/></g></svg>
